<svg xmlns="http://www.w3.org/2000/svg" viewBox="0 -2 20.6 14">
    <path d="M12.6 5.1c0 1.1-.3 2.2-.7 3.1-.5.9-1.2 1.6-2 2.2-.9.5-1.9.8-3.1.8-.8 0-1.6-.2-2.3-.5-.7-.3-1.4-.8-1.9-1.3-.6-.6-.9-1.2-1.3-2C1 6.6.8 5.8.8 4.9c0-.8.2-1.6.5-2.4S2 1.1 2.6.5c.6-.6 1.2-.9 1.9-1.3.7-.2 1.6-.5 2.3-.5 1.6 0 3 .6 4.1 1.6L9.3 2c-.6-.7-1.5-.9-2.4-.9-.6 0-1.3.2-1.9.6-.6.3-1.1.8-1.5 1.4C3.2 3.7 3 4.3 3 5s.2 1.4.5 2c.4.6.8 1 1.4 1.4s1.2.6 1.9.6c.5 0 .8-.1 1.3-.2.4-.2.7-.3.9-.5.3-.3.5-.4.6-.8s.4-.5.5-.7c.1-.2.2-.5.2-.7H6.8V3.9h5.7c.1.5.1.8.1 1.2m7.2-1v1.8H18v1.8h-1.8V5.9h-1.7V4.1h1.8V2.4h1.8v1.8h1.7z"/>
</svg>
