<svg version="1.1" xmlns="http://www.w3.org/2000/svg" viewBox="-1 -4 17 17" >
<path d="M14.4,4.6c0,1.5,0,2.6-0.1,3.2c-0.1,1.4-0.5,2.5-1.2,3.2c-0.8,0.8-1.8,1.2-3.2,1.2c-0.6,0-1.7,0.1-3.2,0.1s-2.6,0-3.2-0.1
	C2.1,12.1,1,11.7,0.3,11c-0.8-0.8-1.2-1.8-1.2-3.2C-1,7.2-1,6.1-1,4.6S-1,2-0.9,1.4C-0.8,0-0.4-1.1,0.3-1.8C1.1-2.6,2.1-3,3.5-3h6.4
	c1.4,0.1,2.5,0.5,3.2,1.2C13.9-1,14.3,0,14.3,1.4C14.4,2,14.4,3.1,14.4,4.6 M7.4-1.4H4.1c-0.4,0-0.7,0-1,0.1S2.6-1.1,2.4-1.1
	C2.1-0.9,1.8-0.8,1.6-0.5C1.3-0.3,1.2,0,1,0.3C1,0.5,0.9,0.7,0.9,1S0.8,1.6,0.8,2v5.2c0,0.4,0,0.7,0.1,1C0.9,8.5,1,8.7,1,8.9
	c0.1,0.3,0.3,0.6,0.5,0.8c0.2,0.2,0.5,0.4,0.8,0.6c0.2,0.1,0.4,0.1,0.7,0.2c0.3,0,0.6,0.1,1,0.1h5.2c0.4,0,0.7,0,1-0.1
	c0.3,0,0.5-0.1,0.7-0.2c0.3-0.1,0.6-0.3,0.8-0.6c0.2-0.2,0.4-0.5,0.5-0.8c0.1-0.2,0.1-0.4,0.2-0.7c0-0.3,0.1-0.6,0.1-1V2
	c0-0.4,0-0.7-0.1-1c0-0.3-0.1-0.5-0.2-0.7c-0.1-0.3-0.3-0.6-0.5-0.8c-0.1-0.3-0.4-0.4-0.7-0.6c-0.2-0.1-0.4-0.1-0.7-0.2
	c-0.3,0-0.6-0.1-1-0.1H7.4 M9.4,2c0.7,0.7,1.1,1.6,1.1,2.6s-0.4,1.9-1.1,2.6S7.8,8.3,6.8,8.3S4.9,7.9,4.2,7.2C3.3,6.5,3,5.7,3,4.6
	S3.4,2.7,4.1,2c0.7-0.8,1.6-1.1,2.6-1.1C7.8,0.9,8.6,1.2,9.4,2 M8.3,6.2C8.8,5.7,9,5.2,9,4.6S8.8,3.4,8.3,3c-0.5-0.5-1-0.7-1.6-0.7
	S5.5,2.5,5.1,3C4.6,3.5,4.4,4,4.4,4.6s0.2,1.2,0.7,1.6c0.5,0.5,1,0.7,1.6,0.7C7.4,6.9,7.9,6.7,8.3,6.2 M11.2,0.1
	c0.2,0.2,0.3,0.4,0.3,0.6s-0.1,0.4-0.3,0.6c-0.2,0.2-0.4,0.3-0.6,0.3S10.2,1.5,10,1.3S9.7,0.9,9.7,0.7S9.8,0.3,10,0.1
	c0.2-0.2,0.4-0.2,0.6-0.2S11-0.1,11.2,0.1"/>
<linearGradient id="grad" gradientUnits="userSpaceOnUse" x1="0.2815" y1="-1.848252e-002" x2="13.1185" y2="12.8185" gradientTransform="matrix(1 0 0 -1 0 11)">
	<stop  offset="0" style="stop-color:#BE3088"/>
	<stop  offset="1" style="stop-color:#ECA62F"/>
</linearGradient>
<path fill="url(#grad)" class="gradient" d="M14.4,4.6c0,1.5,0,2.6-0.1,3.2c-0.1,1.4-0.5,2.5-1.2,3.2c-0.8,0.8-1.8,1.2-3.2,1.2c-0.6,0-1.7,0.1-3.2,0.1
	s-2.6,0-3.2-0.1C2.1,12.1,1,11.7,0.3,11c-0.8-0.8-1.2-1.8-1.2-3.2C-1,7.2-1,6.1-1,4.6S-1,2-0.9,1.4C-0.8,0-0.4-1.1,0.3-1.8
	C1.1-2.6,2.1-3,3.5-3c0.6,0,1.7,0,3.2,0s2.6,0,3.2,0c1.4,0.1,2.5,0.5,3.2,1.2C13.9-1,14.3,0,14.3,1.4C14.4,2,14.4,3.1,14.4,4.6
	 M7.4-1.4c-0.4,0-0.7,0-0.7,0s-0.3,0-0.7,0c-0.4,0-0.8,0-1,0s-0.5,0-0.9,0s-0.7,0-1,0.1C2.8-1.2,2.6-1.1,2.4-1.1
	C2.1-0.9,1.8-0.8,1.6-0.5C1.3-0.3,1.2,0,1,0.3C1,0.5,0.9,0.7,0.9,1S0.8,1.6,0.8,2s0,0.7,0,0.9c0,0.2,0,0.6,0,1s0,0.7,0,0.7
	s0,0.3,0,0.7s0,0.8,0,1s0,0.5,0,0.9s0,0.7,0.1,1C0.9,8.5,1,8.7,1,8.9c0.1,0.3,0.3,0.6,0.5,0.8s0.5,0.4,0.8,0.6
	c0.2,0.1,0.4,0.1,0.7,0.2c0.3,0,0.6,0.1,1,0.1s0.7,0,0.9,0c0.2,0,0.6,0,1,0s0.7,0,0.7,0s0.3,0,0.7,0c0.4,0,0.8,0,1,0s0.5,0,0.9,0
	s0.7,0,1-0.1c0.3,0,0.5-0.1,0.7-0.2c0.3-0.1,0.6-0.3,0.8-0.6c0.2-0.2,0.4-0.5,0.5-0.8c0.1-0.2,0.1-0.4,0.2-0.7c0-0.3,0.1-0.6,0.1-1
	s0-0.7,0-0.9s0-0.6,0-1s0-0.7,0-0.7s0-0.3,0-0.7c0-0.4,0-0.8,0-1s0-0.5,0-0.9s0-0.7-0.1-1c0-0.3-0.1-0.5-0.2-0.7
	c-0.1-0.3-0.3-0.6-0.5-0.8c-0.1-0.3-0.4-0.4-0.7-0.6c-0.2-0.1-0.4-0.1-0.7-0.2c-0.3,0-0.6-0.1-1-0.1s-0.7,0-0.9,0
	C8.2-1.4,7.9-1.4,7.4-1.4 M9.4,2c0.7,0.7,1.1,1.6,1.1,2.6s-0.4,1.9-1.1,2.6C8.7,7.9,7.8,8.3,6.8,8.3S4.9,7.9,4.2,7.2
	C3.3,6.5,3,5.7,3,4.6S3.4,2.7,4.1,2c0.7-0.8,1.6-1.1,2.6-1.1C7.8,0.9,8.6,1.2,9.4,2 M8.3,6.2C8.8,5.7,9,5.2,9,4.6S8.8,3.4,8.3,3
	c-0.5-0.5-1-0.7-1.6-0.7S5.5,2.5,5.1,3C4.6,3.5,4.4,4,4.4,4.6s0.2,1.2,0.7,1.6c0.5,0.5,1,0.7,1.6,0.7C7.4,6.9,7.9,6.7,8.3,6.2
	 M11.2,0.1c0.2,0.2,0.3,0.4,0.3,0.6c0,0.2-0.1,0.4-0.3,0.6s-0.4,0.3-0.6,0.3c-0.2,0-0.4-0.1-0.6-0.3C9.8,1.1,9.7,0.9,9.7,0.7
	c0-0.2,0.1-0.4,0.3-0.6c0.2-0.2,0.4-0.2,0.6-0.2C10.8-0.1,11-0.1,11.2,0.1"/>
</svg>
