<svg xmlns="http://www.w3.org/2000/svg" viewBox="-1 -2 17 14">
    <path d="M15 .3c-.5.7-1 1.2-1.6 1.6v.4c0 .8-.1 1.6-.4 2.5-.2.8-.6 1.6-1.1 2.4s-1.1 1.4-1.8 2c-.7.6-1.5 1-2.4 1.4-1 .3-2 .5-3.1.5-1.7 0-3.3-.5-4.7-1.4h.7c1.4 0 2.7-.4 3.8-1.3-.7 0-1.3-.2-1.8-.6-.3-.4-.7-.9-.8-1.5h.6c.3 0 .5 0 .8-.1-.7-.1-1.3-.5-1.8-1-.5-.6-.7-1.3-.7-2 .3.2.8.3 1.3.4-.4-.3-.7-.7-1-1.1C.8 2 .6 1.5.6 1 .6.4.8-.1 1-.5c.8.9 1.7 1.7 2.8 2.3s2.3.9 3.5.9V2c0-.8.3-1.6.9-2.2s1.3-.9 2.2-.9 1.6.3 2.2 1c.7-.1 1.3-.4 1.9-.7-.2.7-.7 1.3-1.3 1.7.7-.1 1.3-.3 1.8-.6"/>
</svg>
