<svg xmlns="http://www.w3.org/2000/svg" viewBox="-1 -1 17 13">
    <path d="M15.5 4.2v2.6c0 .3 0 .7-.1 1.2 0 .5-.1.9-.2 1.3s-.3.8-.6 1.1c-.3.3-.7.5-1.1.5-1.3.1-3.3.2-6 .2s-4.7-.1-6-.2c-.4 0-.8-.2-1.1-.5-.3-.2-.5-.6-.6-1s-.2-.8-.2-1.3c-.1-.5-.1-.9-.1-1.2V4.3c0-.3 0-.7.1-1.2 0-.5.1-.9.2-1.3.1-.6.3-1 .6-1.3.3-.2.7-.4 1.1-.5 1.3-.1 3.3-.2 6-.2s4.7.1 6 .2c.4 0 .8.2 1.1.5.3.3.5.7.6 1.1s.1.8.2 1.3.1 1 .1 1.3m-4.6 1.3c0-.2-.1-.4-.3-.5L6.1 2.2c-.2-.1-.4-.2-.6 0-.2.1-.3.2-.3.5v5.7c0 .2.1.4.3.5.1 0 .2.1.3.1.1 0 .2 0 .3-.1L10.7 6c.1-.1.2-.2.2-.5"/>
</svg>
