<svg xmlns="http://www.w3.org/2000/svg" viewBox="-295 389.3 20.6 14">
    <path d="M-282.4 396.5c0 1.1-.3 2.2-.7 3.1-.5.9-1.2 1.6-2 2.2-.9.5-1.9.8-3.1.8-.8 0-1.6-.2-2.3-.5-.7-.3-1.4-.8-1.9-1.3-.6-.6-.9-1.2-1.3-2-.3-.8-.5-1.6-.5-2.5 0-.8.2-1.6.5-2.4.3-.8.7-1.4 1.3-2 .6-.6 1.2-.9 1.9-1.3.7-.3 1.6-.5 2.3-.5 1.6 0 3 .6 4.1 1.6l-1.6 1.6c-.6-.7-1.5-.9-2.4-.9-.6 0-1.3.2-1.9.6-.6.3-1.1.8-1.5 1.4-.3.6-.5 1.2-.5 1.9s.2 1.4.5 2c.4.6.8 1 1.4 1.4.6.4 1.2.6 1.9.6.5 0 .8-.1 1.3-.2.4-.1.7-.3.9-.5.3-.2.5-.4.6-.7s.4-.5.5-.8c.1-.2.2-.5.2-.7h-3.5v-2.1h5.7c.1.5.1.8.1 1.2m7.2-1v1.8h-1.8v1.8h-1.8v-1.8h-1.7v-1.8h1.8v-1.8h1.8v1.8h1.7z"/>
</svg>
