<svg xmlns="http://www.w3.org/2000/svg" xmlns:xlink="http://www.w3.org/1999/xlink" viewBox="-295 390.9 20.6 13.1">
    <defs>
        <path id="SVGID_1_" d="M-295 390.9h20.6V404H-295z"/>
    </defs>
    <clipPath id="SVGID_2_">
        <use xlink:href="#SVGID_1_" overflow="visible"/>
    </clipPath>
    <path d="M-282.2 397.6c0 1.2-.3 2.3-.8 3.3s-1.3 1.7-2.2 2.3c-1 .5-2.1.8-3.3.8-.9 0-1.7-.2-2.5-.5s-1.5-.8-2.1-1.4c-.6-.6-1-1.3-1.4-2.1-.3-.8-.5-1.7-.5-2.6 0-.8.2-1.7.5-2.5s.8-1.5 1.4-2.1 1.3-1 2.1-1.4c.8-.3 1.7-.5 2.5-.5 1.7 0 3.2.6 4.4 1.7l-1.7 1.7c-.7-.7-1.6-1-2.6-1-.7 0-1.4.2-2 .6-.7.3-1.2.8-1.6 1.5-.3.6-.5 1.3-.5 2s.2 1.5.5 2.1c.4.6.9 1.1 1.5 1.5s1.3.6 2 .6c.5 0 .9-.1 1.4-.2.4-.1.8-.3 1-.5.3-.2.5-.4.7-.7.2-.3.4-.5.5-.8.1-.2.2-.5.2-.7h-3.8v-2.2h6.2c.1.4.1.7.1 1.1m7.8-1.1v1.9h-1.9v1.9h-1.9v-1.9h-1.8v-1.9h1.9v-1.9h1.9v1.9h1.8z"/>
</svg>
