<?xml version="1.0" encoding="utf-8"?>
<!-- Generator: Adobe Illustrator 19.0.0, SVG Export Plug-In . SVG Version: 6.00 Build 0)  -->
<svg version="1.1" id="Слой_1" xmlns="http://www.w3.org/2000/svg" xmlns:xlink="http://www.w3.org/1999/xlink" x="0px" y="0px"
	 viewBox="0 0 20.6 13.1" style="enable-background:new 0 0 20.6 13.1;" xml:space="preserve">
<style type="text/css">
	.st0{clip-path:url(#SVGID_2_);fill:#A8AAB4;}
</style>
<g>
	<defs>
		<rect id="SVGID_1_" y="0" width="20.6" height="13.1"/>
	</defs>
	<clipPath id="SVGID_2_">
		<use xlink:href="#SVGID_1_"  style="overflow:visible;"/>
	</clipPath>
	<path class="st0" d="M12.8,6.7c0,1.2-0.3,2.3-0.8,3.3c-0.5,1-1.3,1.7-2.2,2.3c-1,0.5-2.1,0.8-3.3,0.8c-0.9,0-1.7-0.2-2.5-0.5
		c-0.8-0.3-1.5-0.8-2.1-1.4c-0.6-0.6-1-1.3-1.4-2.1C0.2,8.3,0,7.4,0,6.5C0,5.7,0.2,4.8,0.5,4c0.3-0.8,0.8-1.5,1.4-2.1
		c0.6-0.6,1.3-1,2.1-1.4C4.8,0.2,5.7,0,6.5,0c1.7,0,3.2,0.6,4.4,1.7L9.2,3.4c-0.7-0.7-1.6-1-2.6-1c-0.7,0-1.4,0.2-2,0.6
		C3.9,3.3,3.4,3.8,3,4.5C2.7,5.1,2.5,5.8,2.5,6.5S2.7,8,3,8.6c0.4,0.6,0.9,1.1,1.5,1.5c0.6,0.4,1.3,0.6,2,0.6c0.5,0,0.9-0.1,1.4-0.2
		c0.4-0.1,0.8-0.3,1-0.5c0.3-0.2,0.5-0.4,0.7-0.7C9.8,9,10,8.8,10.1,8.5c0.1-0.2,0.2-0.5,0.2-0.7H6.5V5.6h6.2
		C12.8,6,12.8,6.3,12.8,6.7 M20.6,5.6v1.9h-1.9v1.9h-1.9V7.5H15V5.6h1.9V3.7h1.9v1.9H20.6z"/>
</g>
</svg>
