<?xml version="1.0" encoding="utf-8"?>
<!-- Generator: Adobe Illustrator 19.0.0, SVG Export Plug-In . SVG Version: 6.00 Build 0)  -->
<svg version="1.1" id="Слой_1" xmlns="http://www.w3.org/2000/svg" xmlns:xlink="http://www.w3.org/1999/xlink" x="0px" y="0px"
	 viewBox="0 0 15.4 15.4" style="enable-background:new 0 0 15.4 15.4;" xml:space="preserve">
<style type="text/css">
	.st0{clip-path:url(#SVGID_2_);fill:#A8AAB4;}
</style>
<g>
	<defs>
		<rect id="SVGID_1_" y="0" width="15.4" height="15.4"/>
	</defs>
	<clipPath id="SVGID_2_">
		<use xlink:href="#SVGID_1_"  style="overflow:visible;"/>
	</clipPath>
	<path class="st0" d="M15.4,7.7c0,1.5,0,2.6-0.1,3.2c-0.1,1.4-0.5,2.5-1.2,3.2c-0.8,0.8-1.8,1.2-3.2,1.2c-0.6,0-1.7,0.1-3.2,0.1
		c-1.5,0-2.6,0-3.2-0.1c-1.4-0.1-2.5-0.5-3.2-1.2c-0.8-0.8-1.2-1.8-1.2-3.2C0,10.3,0,9.2,0,7.7s0-2.6,0.1-3.2
		c0.1-1.4,0.5-2.5,1.2-3.2c0.8-0.8,1.8-1.2,3.2-1.2c0.6,0,1.7,0,3.2,0c1.5,0,2.6,0,3.2,0c1.4,0.1,2.5,0.5,3.2,1.2
		c0.8,0.8,1.2,1.8,1.2,3.2C15.4,5.1,15.4,6.2,15.4,7.7 M8.4,1.7c-0.4,0-0.7,0-0.7,0s-0.3,0-0.7,0c-0.4,0-0.8,0-1,0
		c-0.2,0-0.5,0-0.9,0c-0.4,0-0.7,0-1,0.1C3.8,1.9,3.6,2,3.4,2C3.1,2.2,2.8,2.3,2.6,2.6C2.3,2.8,2.2,3.1,2,3.4C2,3.6,1.9,3.8,1.9,4.1
		c0,0.3-0.1,0.6-0.1,1c0,0.4,0,0.7,0,0.9c0,0.2,0,0.6,0,1c0,0.4,0,0.7,0,0.7s0,0.3,0,0.7c0,0.4,0,0.8,0,1c0,0.2,0,0.5,0,0.9
		c0,0.4,0,0.7,0.1,1C1.9,11.6,2,11.8,2,12c0.1,0.3,0.3,0.6,0.5,0.8c0.2,0.2,0.5,0.4,0.8,0.6c0.2,0.1,0.4,0.1,0.7,0.2
		c0.3,0,0.6,0.1,1,0.1c0.4,0,0.7,0,0.9,0c0.2,0,0.6,0,1,0c0.4,0,0.7,0,0.7,0s0.3,0,0.7,0c0.4,0,0.8,0,1,0c0.2,0,0.5,0,0.9,0
		c0.4,0,0.7,0,1-0.1c0.3,0,0.5-0.1,0.7-0.2c0.3-0.1,0.6-0.3,0.8-0.6c0.2-0.2,0.4-0.5,0.5-0.8c0.1-0.2,0.1-0.4,0.2-0.7
		c0-0.3,0.1-0.6,0.1-1c0-0.4,0-0.7,0-0.9c0-0.2,0-0.6,0-1c0-0.4,0-0.7,0-0.7s0-0.3,0-0.7c0-0.4,0-0.8,0-1c0-0.2,0-0.5,0-0.9
		c0-0.4,0-0.7-0.1-1c0-0.3-0.1-0.5-0.2-0.7c-0.1-0.3-0.3-0.6-0.5-0.8C12.6,2.3,12.3,2.2,12,2c-0.2-0.1-0.4-0.1-0.7-0.2
		c-0.3,0-0.6-0.1-1-0.1c-0.4,0-0.7,0-0.9,0C9.2,1.7,8.9,1.7,8.4,1.7 M10.4,5.1c0.7,0.7,1.1,1.6,1.1,2.6s-0.4,1.9-1.1,2.6
		c-0.7,0.7-1.6,1.1-2.6,1.1c-1,0-1.9-0.4-2.6-1.1C4.3,9.6,4,8.8,4,7.7s0.4-1.9,1.1-2.6C5.8,4.3,6.7,4,7.7,4C8.8,4,9.6,4.3,10.4,5.1
		 M9.3,9.3c0.5-0.5,0.7-1,0.7-1.6S9.8,6.5,9.3,6.1c-0.5-0.5-1-0.7-1.6-0.7c-0.6,0-1.2,0.2-1.6,0.7c-0.5,0.5-0.7,1-0.7,1.6
		s0.2,1.2,0.7,1.6c0.5,0.5,1,0.7,1.6,0.7C8.4,10,8.9,9.8,9.3,9.3 M12.2,3.2c0.2,0.2,0.3,0.4,0.3,0.6c0,0.2-0.1,0.4-0.3,0.6
		c-0.2,0.2-0.4,0.3-0.6,0.3c-0.2,0-0.4-0.1-0.6-0.3c-0.2-0.2-0.3-0.4-0.3-0.6c0-0.2,0.1-0.4,0.3-0.6C11.2,3,11.4,3,11.6,3
		C11.8,3,12,3,12.2,3.2"/>
</g>
</svg>
