<svg xmlns="http://www.w3.org/2000/svg" xmlns:xlink="http://www.w3.org/1999/xlink" viewBox="-297 389.6 15.4 15.4">
    <defs>
        <path id="SVGID_1_" d="M-297 389.6h15.4V405H-297z"/>
    </defs>
    <clipPath id="SVGID_2_">
        <use xlink:href="#SVGID_1_" overflow="visible"/>
    </clipPath>
    <path d="M-281.6 397.3c0 1.5 0 2.6-.1 3.2-.1 1.4-.5 2.5-1.2 3.2-.8.8-1.8 1.2-3.2 1.2-.6 0-1.7.1-3.2.1s-2.6 0-3.2-.1c-1.4-.1-2.5-.5-3.2-1.2-.8-.8-1.2-1.8-1.2-3.2-.1-.6-.1-1.7-.1-3.2s0-2.6.1-3.2c.1-1.4.5-2.5 1.2-3.2.8-.8 1.8-1.2 3.2-1.2h6.4c1.4.1 2.5.5 3.2 1.2.8.8 1.2 1.8 1.2 3.2.1.6.1 1.7.1 3.2m-7-6h-3.3c-.4 0-.7 0-1 .1-.3.1-.5.2-.7.2-.3.2-.6.3-.8.6-.3.2-.4.5-.6.8 0 .2-.1.4-.1.7 0 .3-.1.6-.1 1v5.2c0 .4 0 .7.1 1 0 .3.1.5.1.7.1.3.3.6.5.8.2.2.5.4.8.6.2.1.4.1.7.2.3 0 .6.1 1 .1h5.2c.4 0 .7 0 1-.1.3 0 .5-.1.7-.2.3-.1.6-.3.8-.6.2-.2.4-.5.5-.8.1-.2.1-.4.2-.7 0-.3.1-.6.1-1v-5.2c0-.4 0-.7-.1-1 0-.3-.1-.5-.2-.7-.1-.3-.3-.6-.5-.8-.1-.3-.4-.4-.7-.6-.2-.1-.4-.1-.7-.2-.3 0-.6-.1-1-.1h-1.9m2 3.4c.7.7 1.1 1.6 1.1 2.6s-.4 1.9-1.1 2.6c-.7.7-1.6 1.1-2.6 1.1s-1.9-.4-2.6-1.1c-.9-.7-1.2-1.5-1.2-2.6s.4-1.9 1.1-2.6c.7-.8 1.6-1.1 2.6-1.1 1.1 0 1.9.3 2.7 1.1m-1.1 4.2c.5-.5.7-1 .7-1.6 0-.6-.2-1.2-.7-1.6-.5-.5-1-.7-1.6-.7-.6 0-1.2.2-1.6.7-.5.5-.7 1-.7 1.6 0 .6.2 1.2.7 1.6.5.5 1 .7 1.6.7.7 0 1.2-.2 1.6-.7m2.9-6.1c.2.2.3.4.3.6 0 .2-.1.4-.3.6-.2.2-.4.3-.6.3-.2 0-.4-.1-.6-.3-.2-.2-.3-.4-.3-.6 0-.2.1-.4.3-.6.2-.2.4-.2.6-.2.2 0 .4 0 .6.2"/>
</svg>
