<?xml version="1.0" encoding="utf-8"?>
<!-- Generator: Adobe Illustrator 19.0.0, SVG Export Plug-In . SVG Version: 6.00 Build 0)  -->
<svg version="1.1" id="Слой_1" xmlns="http://www.w3.org/2000/svg" xmlns:xlink="http://www.w3.org/1999/xlink" x="0px" y="0px"
	 viewBox="0 0 9.6 16" style="enable-background:new 0 0 9.6 16;" xml:space="preserve">
<style type="text/css">
	.st0{clip-path:url(#SVGID_2_);fill:#A8AAB4;}
</style>
<g>
	<defs>
		<rect id="SVGID_1_" y="0" width="9.6" height="16"/>
	</defs>
	<clipPath id="SVGID_2_">
		<use xlink:href="#SVGID_1_"  style="overflow:visible;"/>
	</clipPath>
	<path class="st0" d="M9.5,8.6C9.6,8.7,9.6,8.9,9.6,9c0,0.1,0,0.3,0,0.4c0,0.1-0.1,0.2-0.2,0.3C9.2,9.9,9.1,10,9,10.1
		c-0.1,0.1-0.3,0.2-0.5,0.4c-0.7,0.4-1.6,0.7-2.8,0.8l0.7,0.6l2.4,2.4c0.2,0.2,0.3,0.4,0.3,0.7c0,0.3-0.1,0.5-0.3,0.7l-0.1,0.1
		C8.3,15.9,8.1,16,7.9,16c-0.3,0-0.5-0.1-0.7-0.3c-0.4-0.4-1.2-1.2-2.4-2.4l-2.4,2.4C2.2,15.9,2,16,1.8,16c-0.3,0-0.5-0.1-0.7-0.3
		L1,15.6c-0.2-0.2-0.3-0.4-0.3-0.7c0-0.3,0.1-0.5,0.3-0.7l2.4-2.4L4,11.3c-1.2-0.1-2.1-0.4-2.8-0.8c-0.2-0.1-0.4-0.3-0.5-0.4
		C0.5,10,0.4,9.9,0.3,9.7C0.2,9.6,0.1,9.5,0,9.4C0,9.3,0,9.2,0,9c0-0.1,0.1-0.3,0.1-0.4c0.1-0.1,0.1-0.2,0.3-0.3
		c0.1-0.1,0.2-0.2,0.4-0.2c0.1,0,0.3,0,0.5,0c0.2,0.1,0.4,0.2,0.6,0.3c0,0,0.1,0.1,0.1,0.1c0.1,0,0.2,0.1,0.4,0.2
		C2.6,8.8,2.8,8.9,3,9c0.2,0.1,0.5,0.1,0.8,0.2c0.3,0.1,0.7,0.1,1,0.1c0.5,0,1.1-0.1,1.6-0.2c0.5-0.2,0.9-0.3,1.1-0.5l0.3-0.2
		C8,8.3,8.2,8.2,8.4,8.1C8.5,8,8.7,8,8.9,8.1c0.1,0,0.3,0.1,0.4,0.2C9.3,8.4,9.4,8.5,9.5,8.6 M7.7,6.9C6.9,7.7,5.9,8.1,4.8,8.1
		S2.7,7.7,1.9,6.9S0.8,5.2,0.8,4.1c0-1.1,0.4-2.1,1.2-2.9C2.7,0.4,3.7,0,4.8,0s2.1,0.4,2.9,1.2C8.5,2,8.9,2.9,8.9,4.1
		C8.9,5.2,8.5,6.1,7.7,6.9 M6.2,2.6C5.8,2.2,5.4,2.1,4.8,2.1c-0.5,0-1,0.2-1.4,0.6C3,3,2.8,3.5,2.8,4.1c0,0.5,0.2,1,0.6,1.4
		C3.8,5.8,4.3,6,4.8,6c0.5,0,1-0.2,1.4-0.6c0.4-0.4,0.6-0.9,0.6-1.4C6.8,3.5,6.6,3,6.2,2.6"/>
</g>
</svg>
