<svg xmlns="http://www.w3.org/2000/svg" viewBox="-304.7 385.5 11 17">
    <path d="M-294.5 394.6c.1.1.1.3.1.4v.4c0 .1-.1.2-.2.3l-.4.4c-.1.1-.3.2-.5.4-.7.4-1.6.7-2.8.8l.7.6 2.4 2.4c.2.2.3.4.3.7 0 .3-.1.5-.3.7l-.1.1c-.4.1-.6.2-.8.2-.3 0-.5-.1-.7-.3l-2.4-2.4-2.4 2.4c-.2.2-.4.3-.6.3-.3 0-.5-.1-.7-.3l-.1-.1c-.2-.2-.3-.4-.3-.7 0-.3.1-.5.3-.7l2.4-2.4.6-.5c-1.2-.1-2.1-.4-2.8-.8-.2-.1-.4-.3-.5-.4-.2-.1-.3-.2-.4-.4l-.3-.3v-.4c0-.1.1-.3.1-.4.1-.1.1-.2.3-.3.1-.1.2-.2.4-.2h.5l.6.3.1.1c.1 0 .2.1.4.2l.6.3c.2.1.5.1.8.2.3.1.7.1 1 .1.5 0 1.1-.1 1.6-.2.5-.2.9-.3 1.1-.5l.3-.2.6-.3c.1-.1.3-.1.5 0 .1 0 .3.1.4.2 0 .1.1.2.2.3m-1.8-1.7c-.8.8-1.8 1.2-2.9 1.2s-2.1-.4-2.9-1.2-1.1-1.7-1.1-2.8.4-2.1 1.2-2.9c.7-.8 1.7-1.2 2.8-1.2 1.1 0 2.1.4 2.9 1.2s1.2 1.7 1.2 2.9c0 1.1-.4 2-1.2 2.8m-1.5-4.3c-.4-.4-.8-.5-1.4-.5-.5 0-1 .2-1.4.6-.4.3-.6.8-.6 1.4 0 .5.2 1 .6 1.4.4.3.9.5 1.4.5s1-.2 1.4-.6c.4-.4.6-.9.6-1.4s-.2-1-.6-1.4"/>
</svg>
