<?xml version="1.0" encoding="utf-8"?>
<!-- Generator: Adobe Illustrator 19.0.0, SVG Export Plug-In . SVG Version: 6.00 Build 0)  -->
<svg version="1.1" id="Слой_1" xmlns="http://www.w3.org/2000/svg" xmlns:xlink="http://www.w3.org/1999/xlink" x="0px" y="0px"
	 viewBox="0 0 15 12.1" style="enable-background:new 0 0 15 12.1;" xml:space="preserve">
<style type="text/css">
	.st0{clip-path:url(#SVGID_2_);fill:#A8AAB4;}
</style>
<g>
	<defs>
		<rect id="SVGID_1_" y="0" width="14.9" height="12.1"/>
	</defs>
	<clipPath id="SVGID_2_">
		<use xlink:href="#SVGID_1_"  style="overflow:visible;"/>
	</clipPath>
	<path class="st0" d="M15,1.4C14.5,2.1,14,2.6,13.4,3c0,0.1,0,0.2,0,0.4c0,0.8-0.1,1.6-0.4,2.5c-0.2,0.8-0.6,1.6-1.1,2.4
		c-0.5,0.8-1.1,1.4-1.8,2c-0.7,0.6-1.5,1-2.4,1.4c-1,0.3-2,0.5-3.1,0.5c-1.7,0-3.3-0.5-4.7-1.4c0.2,0,0.5,0,0.7,0
		c1.4,0,2.7-0.4,3.8-1.3c-0.7,0-1.3-0.2-1.8-0.6C2.2,8.5,1.9,8,1.7,7.4c0.2,0,0.4,0,0.6,0c0.3,0,0.5,0,0.8-0.1
		C2.4,7.2,1.8,6.8,1.3,6.3C0.8,5.7,0.6,5,0.6,4.3v0C1,4.5,1.5,4.6,2,4.7C1.6,4.4,1.2,4,1,3.6C0.7,3.1,0.6,2.6,0.6,2.1
		C0.6,1.5,0.8,1,1,0.6c0.8,0.9,1.7,1.7,2.8,2.3c1.1,0.6,2.3,0.9,3.5,0.9C7.3,3.5,7.3,3.3,7.3,3.1c0-0.8,0.3-1.6,0.9-2.2
		C8.8,0.3,9.5,0,10.4,0c0.9,0,1.6,0.3,2.2,1c0.7-0.1,1.3-0.4,1.9-0.7c-0.2,0.7-0.7,1.3-1.3,1.7C13.8,1.9,14.4,1.7,15,1.4"/>
</g>
</svg>
