<?xml version="1.0" encoding="utf-8"?>
<!-- Generator: Adobe Illustrator 19.0.0, SVG Export Plug-In . SVG Version: 6.00 Build 0)  -->
<svg version="1.1" id="Слой_1" xmlns="http://www.w3.org/2000/svg" xmlns:xlink="http://www.w3.org/1999/xlink" x="0px" y="0px"
	 viewBox="0 0 18.2 10.4" style="enable-background:new 0 0 18.2 10.4;" xml:space="preserve">
<style type="text/css">
	.st0{clip-path:url(#SVGID_2_);fill:#A8AAB4;}
</style>
<g>
	<defs>
		<rect id="SVGID_1_" y="0" width="18.2" height="10.4"/>
	</defs>
	<clipPath id="SVGID_2_">
		<use xlink:href="#SVGID_1_"  style="overflow:visible;"/>
	</clipPath>
	<path class="st0" d="M18.2,0.8c0.1,0.4-0.3,1.3-1.4,2.8c-0.1,0.2-0.4,0.5-0.6,0.8c-0.5,0.6-0.8,1-0.9,1.2c-0.1,0.3-0.1,0.5,0.1,0.8
		c0.1,0.1,0.4,0.4,0.8,0.8h0l0,0l0,0l0,0c0.9,0.8,1.5,1.5,1.8,2.1c0,0,0,0.1,0.1,0.1c0,0,0,0.1,0.1,0.3c0,0.1,0,0.2,0,0.3
		c0,0.1-0.1,0.2-0.2,0.3c-0.1,0.1-0.3,0.1-0.6,0.1l-2.4,0c-0.2,0-0.3,0-0.5,0c-0.2-0.1-0.4-0.1-0.5-0.2L13.7,10
		c-0.2-0.1-0.4-0.3-0.7-0.6c-0.3-0.3-0.5-0.5-0.7-0.7c-0.2-0.2-0.4-0.4-0.6-0.6C11.6,8,11.5,7.9,11.3,8c0,0,0,0-0.1,0
		c0,0-0.1,0.1-0.2,0.1c-0.1,0.1-0.1,0.2-0.2,0.3c-0.1,0.1-0.1,0.3-0.2,0.5c0,0.2-0.1,0.5-0.1,0.7c0,0.1,0,0.2,0,0.3
		c0,0.1,0,0.1-0.1,0.2l0,0c-0.1,0.1-0.3,0.2-0.5,0.2H8.9c-0.4,0-0.9,0-1.4-0.2c-0.5-0.1-0.9-0.3-1.2-0.5c-0.4-0.2-0.7-0.4-1-0.6
		C5,8.8,4.8,8.7,4.6,8.5L4.4,8.3C4.3,8.2,4.3,8.1,4.1,8C4,7.9,3.8,7.6,3.5,7.1c-0.3-0.4-0.7-0.9-1-1.4c-0.3-0.5-0.7-1.2-1.2-2
		C0.8,2.9,0.4,2,0.1,1.1C0,1,0,0.9,0,0.9c0-0.1,0-0.1,0-0.2l0-0.1c0.1-0.1,0.3-0.2,0.5-0.2l2.6,0c0.1,0,0.1,0,0.2,0.1
		c0.1,0,0.1,0.1,0.2,0.1l0,0c0.1,0.1,0.2,0.2,0.2,0.3c0.1,0.3,0.3,0.6,0.4,1c0.2,0.3,0.3,0.6,0.4,0.8L4.8,3c0.2,0.4,0.4,0.7,0.5,1
		c0.2,0.3,0.3,0.5,0.5,0.7C6,4.8,6.1,4.9,6.2,5c0.1,0.1,0.2,0.1,0.3,0.1c0.1,0,0.2,0,0.3,0c0,0,0,0,0,0c0,0,0.1-0.1,0.1-0.2
		C7,4.7,7.1,4.5,7.1,4.3c0-0.2,0.1-0.4,0.1-0.8c0-0.3,0-0.7,0-1.2c0-0.3,0-0.5-0.1-0.7C7,1.5,7,1.3,7,1.3L6.9,1.1
		C6.7,0.9,6.5,0.8,6.1,0.7C6,0.7,6,0.7,6.1,0.5c0.1-0.1,0.2-0.2,0.4-0.3C6.8,0.1,7.6,0,8.8,0C9.3,0,9.7,0,10,0.1
		c0.1,0,0.2,0.1,0.3,0.1c0.1,0.1,0.1,0.1,0.2,0.2c0,0.1,0.1,0.2,0.1,0.3c0,0.1,0,0.2,0,0.4c0,0.2,0,0.4,0,0.5c0,0.2,0,0.4,0,0.7
		c0,0.3,0,0.5,0,0.8c0,0.1,0,0.2,0,0.4c0,0.2,0,0.3,0,0.5c0,0.1,0,0.2,0,0.4c0,0.1,0.1,0.3,0.1,0.4C10.8,4.9,10.9,5,11,5
		c0.1,0,0.1,0,0.2,0c0.1,0,0.1,0,0.2-0.1c0.1-0.1,0.2-0.2,0.4-0.3c0.1-0.1,0.3-0.3,0.5-0.6c0.2-0.3,0.4-0.6,0.6-1
		c0.4-0.7,0.7-1.4,1-2.1c0-0.1,0.1-0.1,0.1-0.2c0,0,0.1-0.1,0.1-0.1l0,0c0,0,0,0,0,0c0,0,0.1,0,0.1,0c0.1,0,0.1,0,0.2,0l2.7,0
		c0.2,0,0.4,0,0.6,0C18,0.5,18.1,0.6,18.2,0.8L18.2,0.8z"/>
</g>
</svg>
