<svg xmlns="http://www.w3.org/2000/svg" viewBox="0 -0.5 19 12">
    <path d="M18.5 1.2c.1.4-.3 1.3-1.4 2.8-.1.2-.4.5-.6.8-.5.6-.8 1-.9 1.2-.1.3-.1.5.1.8l.8.8c.9.8 1.5 1.5 1.8 2.1 0 0 0 .1.1.1 0 0 0 .1.1.3v.3c0 .1-.1.2-.2.3s-.3.1-.6.1h-2.9c-.2-.1-.4-.1-.5-.2l-.3-.2c-.2-.1-.4-.3-.7-.6l-.7-.7-.6-.6c-.1-.1-.2-.2-.4-.1h-.1s-.1.1-.2.1c-.1.1-.1.2-.2.3-.1.1-.1.3-.2.5 0 .2-.1.5-.1.7v.3c0 .1 0 .1-.1.2s-.3.2-.5.2h-1c-.4 0-.9 0-1.4-.2-.5-.1-.9-.3-1.2-.5-.4-.2-.7-.4-1-.6s-.5-.3-.7-.5l-.2-.2c-.1-.1-.1-.2-.3-.3-.1-.1-.3-.4-.6-.9-.3-.4-.7-.9-1-1.4s-.7-1.2-1.2-2S.7 2.4.4 1.5c-.1-.1-.1-.2-.1-.2V1C.4.9.6.8.8.8h2.6c.1 0 .1 0 .2.1.1 0 .1.1.2.1.1.1.2.2.2.3.1.3.3.6.4 1 .2.3.3.6.4.8l.3.3c.2.4.4.7.5 1 .2.3.3.5.5.7.2.1.3.2.4.3.1.1.2.1.3.1h.3s.1-.1.1-.2c.1-.2.2-.4.2-.6s.1-.4.1-.8V2.7c0-.3 0-.5-.1-.7-.1-.1-.1-.3-.1-.3l-.1-.2c-.2-.2-.4-.3-.8-.4-.1 0-.1 0 0-.2.1-.1.2-.2.4-.3C7.1.5 7.9.4 9.1.4c.5 0 .9 0 1.2.1.1 0 .2.1.3.1l.2.2c0 .1.1.2.1.3v3.7c0 .1.1.3.1.4.1.1.2.2.3.2h.2c.1 0 .1 0 .2-.1s.2-.2.4-.3c.1-.1.3-.3.5-.6s.4-.6.6-1c.4-.7.7-1.4 1-2.1 0-.1.1-.1.1-.2l.1-.1H18c.3-.1.4 0 .5.2z"/>
</svg>
