<?xml version="1.0" encoding="utf-8"?>
<!-- Generator: Adobe Illustrator 19.0.0, SVG Export Plug-In . SVG Version: 6.00 Build 0)  -->
<svg version="1.1" id="Слой_1" xmlns="http://www.w3.org/2000/svg" xmlns:xlink="http://www.w3.org/1999/xlink" x="0px" y="0px"
	 viewBox="0 0 16 11.4" style="enable-background:new 0 0 16 11.4;" xml:space="preserve">
<style type="text/css">
	.st0{clip-path:url(#SVGID_2_);fill:#A8AAB4;}
</style>
<g>
	<defs>
		<rect id="SVGID_1_" y="0" width="16" height="11.4"/>
	</defs>
	<clipPath id="SVGID_2_">
		<use xlink:href="#SVGID_1_"  style="overflow:visible;"/>
	</clipPath>
	<path class="st0" d="M16,4.4c0,0.3,0,0.8,0,1.3s0,1,0,1.3c0,0.3,0,0.7-0.1,1.2c0,0.5-0.1,0.9-0.2,1.3c-0.1,0.4-0.3,0.8-0.6,1.1
		c-0.3,0.3-0.7,0.5-1.1,0.5c-1.3,0.1-3.3,0.2-6,0.2c-2.7,0-4.7-0.1-6-0.2c-0.4,0-0.8-0.2-1.1-0.5C0.6,10.4,0.4,10,0.3,9.6
		C0.2,9.2,0.1,8.8,0.1,8.3C0,7.8,0,7.4,0,7.1c0-0.3,0-0.8,0-1.3s0-1,0-1.3c0-0.3,0-0.7,0.1-1.2c0-0.5,0.1-0.9,0.2-1.3
		C0.4,1.4,0.6,1,0.9,0.7C1.2,0.4,1.6,0.3,2,0.2C3.3,0.1,5.3,0,8,0c2.7,0,4.7,0.1,6,0.2c0.4,0,0.8,0.2,1.1,0.5
		c0.3,0.3,0.5,0.7,0.6,1.1c0.1,0.4,0.1,0.8,0.2,1.3C16,3.6,16,4.1,16,4.4 M11.4,5.7c0-0.2-0.1-0.4-0.3-0.5L6.6,2.4
		C6.4,2.3,6.2,2.2,6,2.4C5.8,2.5,5.7,2.6,5.7,2.9v5.7C5.7,8.8,5.8,9,6,9.1c0.1,0,0.2,0.1,0.3,0.1c0.1,0,0.2,0,0.3-0.1l4.6-2.9
		C11.3,6.1,11.4,5.9,11.4,5.7"/>
</g>
</svg>
