<svg xmlns="http://www.w3.org/2000/svg" xmlns:xlink="http://www.w3.org/1999/xlink" viewBox="-297 391.6 16 11.4">
    <defs>
        <path id="SVGID_1_" d="M-297 391.6h16V403h-16z"/>
    </defs>
    <clipPath id="SVGID_2_">
        <use xlink:href="#SVGID_1_" overflow="visible"/>
    </clipPath>
    <path d="M-281 396v2.6c0 .3 0 .7-.1 1.2 0 .5-.1.9-.2 1.3s-.3.8-.6 1.1c-.3.3-.7.5-1.1.5-1.3.1-3.3.2-6 .2s-4.7-.1-6-.2c-.4 0-.8-.2-1.1-.5-.3-.2-.5-.6-.6-1-.1-.4-.2-.8-.2-1.3-.1-.5-.1-.9-.1-1.2v-2.6c0-.3 0-.7.1-1.2 0-.5.1-.9.2-1.3.1-.6.3-1 .6-1.3.3-.3.7-.4 1.1-.5 1.3-.1 3.3-.2 6-.2s4.7.1 6 .2c.4 0 .8.2 1.1.5.3.3.5.7.6 1.1.1.4.1.8.2 1.3s.1 1 .1 1.3m-4.6 1.3c0-.2-.1-.4-.3-.5l-4.5-2.8c-.2-.1-.4-.2-.6 0-.2.1-.3.2-.3.5v5.7c0 .2.1.4.3.5.1 0 .2.1.3.1.1 0 .2 0 .3-.1l4.6-2.9c.1-.1.2-.3.2-.5"/>
</svg>
