<?xml version="1.0" encoding="utf-8"?>
<!-- Generator: Adobe Illustrator 19.0.0, SVG Export Plug-In . SVG Version: 6.00 Build 0)  -->
<svg version="1.1" id="Layer_1" xmlns="http://www.w3.org/2000/svg" xmlns:xlink="http://www.w3.org/1999/xlink" x="0px" y="0px"
	 viewBox="45.4 236.1 15 15" style="enable-background:new 45.4 236.1 15 15;" xml:space="preserve">
<g>
	<path d="M52.9,236.6c-3.9,0-7,3.1-7,7c0,3.9,3.1,7,7,7c3.9,0,7-3.1,7-7C59.9,239.7,56.7,236.6,52.9,236.6z M52.9,249.1
		c-3,0-5.5-2.5-5.5-5.5c0-3,2.5-5.5,5.5-5.5c3,0,5.5,2.5,5.5,5.5C58.4,246.6,55.9,249.1,52.9,249.1z"/>
	<path d="M55.6,243.3H53v-3.8c0-0.2-0.2-0.4-0.4-0.4c-0.2,0-0.4,0.2-0.4,0.4v4.3c0,0.1,0,0.2,0.1,0.2c0.1,0.2,0.3,0.3,0.5,0.3h2.9
		c0.3,0,0.6-0.2,0.6-0.6C56.2,243.6,55.9,243.3,55.6,243.3z"/>
</g>
</svg>
