<svg xmlns="http://www.w3.org/2000/svg" viewBox="0 0 15 13">
    <path class="st0" d="M13.6 3c.6.8.9 1.6.9 2.5s-.3 1.7-.9 2.5c-.6.8-1.5 1.4-2.5 1.8-1.1.4-2.2.7-3.5.7-.4 0-.7 0-1.1-.1-1 .9-2.2 1.5-3.6 1.9-.3.1-.6.1-.9.2-.1 0-.1 0-.2-.1s-.1-.1-.1-.2v-.1-.1-.1-.1l.1-.1.1-.1s.1-.1.2-.3l.3-.3c.1-.1.1-.2.2-.3.1-.1.2-.3.3-.4.1-.1.1-.3.2-.5-.1 0 0-.2 0-.4-.8-.4-1.4-1-1.9-1.7S.5 6.3.5 5.5c0-.9.3-1.7.9-2.5.7-.8 1.5-1.4 2.6-1.8C5.1.8 6.2.5 7.5.5c1.3 0 2.4.2 3.5.7 1.1.4 1.9 1 2.6 1.8m-3.1-1c-.9-.4-1.9-.5-3-.5s-2.1.2-3 .5c-.9.4-1.6.9-2.2 1.5-.5.6-.8 1.3-.8 2 0 .6.2 1.1.6 1.7.4.5.9 1 1.6 1.4l.7.4-.3.7c-.1.5-.3.9-.5 1.3.8-.3 1.5-.8 2.1-1.3l.3-.3h.4c.4 0 .7.1 1 .1 1.1 0 2.1-.2 3-.5.9-.4 1.7-.9 2.2-1.5.5-.6.8-1.3.8-2s-.3-1.4-.8-2c-.5-.6-1.2-1.1-2.1-1.5"/>
</svg>
