<svg xmlns="http://www.w3.org/2000/svg" viewBox="0 0 13 14">
    <path d="M12.5 7.5c0 .5-.2 1-.6 1.4-.4.4-.9.6-1.4.6H9.1c.3.5.4 1 .4 1.5 0 .6-.1 1.1-.3 1.5-.2.4-.4.6-.8.8-.4.2-.7.3-1.2.3-.3 0-.5-.1-.7-.3-.2-.2-.3-.4-.4-.6-.1-.4-.1-.6-.2-.8 0-.2-.1-.4-.1-.7-.1-.2-.1-.4-.2-.5-.3-.3-.5-.6-.8-1-.6-.7-1-1.1-1.2-1.2H1.5c-.3 0-.5-.1-.7-.3-.2-.2-.3-.4-.3-.7v-5c0-.3.1-.5.3-.7.2-.2.4-.3.7-.3h2.3c.1 0 .5-.1 1.1-.3C5.5 1 6.1.8 6.6.7c.5-.1 1-.2 1.6-.2H9c.7 0 1.3.2 1.8.6.4.4.7 1 .7 1.7.3.4.5.9.5 1.4v.3c.2.3.3.7.3 1.1 0 .2 0 .4-.1.5.2.5.3.9.3 1.4M2.4 3.4c0-.1.1-.3.1-.4 0-.1-.1-.3-.1-.4-.1 0-.3-.1-.4-.1-.1 0-.3.1-.4.1-.1.1-.1.3-.1.4 0 .1 0 .3.1.4.1.1.3.1.4.1.1 0 .3 0 .4-.1m9.1 4.1c0-.2-.1-.4-.2-.6-.1-.2-.3-.4-.4-.4.1-.1.1-.2.2-.4s.1-.3.1-.4c0-.4-.1-.7-.4-.9.1-.2.1-.3.1-.5s0-.4-.1-.6c-.1-.2-.2-.3-.4-.4v-.4c0-.4-.1-.8-.4-1-.2-.3-.5-.4-1-.4H8c-.7 0-1.6.2-2.7.6 0 0-.1 0-.2.1-.1 0-.2 0-.3.1-.1 0-.2.1-.3.1-.1 0-.2.1-.3.1-.1 0-.2 0-.3.1h-.4v5h.3c.1 0 .2 0 .3.1.1 0 .2.1.3.2l.2.2c.1.1.2.2.4.3l.3.3c.1.1.1.2.2.3l.2.2c.2.4.4.7.6.8.2.2.4.5.5.9.1.3.2.7.2 1 .1.3.2.5.3.7.5 0 .8-.1 1-.4.2-.2.3-.6.3-1.1 0-.3-.1-.7-.4-1.3-.3-.6-.4-1-.4-1.3h2.8c.3 0 .5-.1.7-.3.1-.2.2-.4.2-.7"/>
</svg>
