<?xml version="1.0" encoding="utf-8"?>
<!-- Generator: Adobe Illustrator 19.0.0, SVG Export Plug-In . SVG Version: 6.00 Build 0)  -->
<svg version="1.1" id="Слой_1" xmlns="http://www.w3.org/2000/svg" xmlns:xlink="http://www.w3.org/1999/xlink" x="0px" y="0px"
	 viewBox="0 0 42 29.4" style="enable-background:new 0 0 42 29.4;" xml:space="preserve">
<style type="text/css">
	.st0{clip-path:url(#SVGID_2_);fill:none;stroke:#FFFFFF;stroke-width:2;stroke-linecap:round;stroke-miterlimit:10;}
	.st1{clip-path:url(#SVGID_2_);fill:none;stroke:#FFFFFF;stroke-width:2;stroke-miterlimit:10;}
</style>
<g>
	<defs>
		<rect id="SVGID_1_" y="0" width="42" height="29.4"/>
	</defs>
	<clipPath id="SVGID_2_">
		<use xlink:href="#SVGID_1_"  style="overflow:visible;"/>
	</clipPath>
	<path class="st0" d="M27.4,14.6c0,3.3-2.7,6.1-6.1,6.1c-3.3,0-6.1-2.7-6.1-6.1s2.7-6.1,6.1-6.1"/>
	<path class="st1" d="M1.3,15.7c-0.4-0.7-0.4-1.5,0-2.2C3.3,10.3,9.4,1,20.9,1c11.7,0,17.7,9.3,19.8,12.6c0.4,0.7,0.4,1.5,0,2.2
		c-2.1,3.2-8.9,12.6-19.8,12.6C10.1,28.4,3.3,19,1.3,15.7z"/>
</g>
</svg>
