<svg xmlns="http://www.w3.org/2000/svg" xmlns:xlink="http://www.w3.org/1999/xlink" viewBox="0 0 42 29.4">
    <defs>
        <path id="SVGID_1_" d="M0 0h42v29.4H0z"/>
    </defs>
    <clipPath id="SVGID_2_">
        <use xlink:href="#SVGID_1_" overflow="visible"/>
    </clipPath>
    <path d="M27.4 14.6c0 3.3-2.7 6.1-6.1 6.1-3.3 0-6.1-2.7-6.1-6.1s2.7-6.1 6.1-6.1"/>
    <path d="M1.3 15.7c-.4-.7-.4-1.5 0-2.2C3.3 10.3 9.4 1 20.9 1c11.7 0 17.7 9.3 19.8 12.6.4.7.4 1.5 0 2.2-2.1 3.2-8.9 12.6-19.8 12.6-10.8 0-17.6-9.4-19.6-12.7z"/>
</svg>
