<svg xmlns="http://www.w3.org/2000/svg"viewBox="0 0 13 14">
    <path d="M12.5 6.5c0 .5-.1.9-.4 1.3 0 .2.1.4.1.5 0 .4-.1.8-.3 1.1v.3c0 .5-.2 1-.5 1.4 0 .7-.2 1.3-.7 1.7-.4.4-1 .6-1.8.6H8c-.5 0-1-.1-1.5-.2-.5 0-1-.2-1.7-.4-.6-.2-1-.3-1.1-.3H1.5c-.3 0-.5-.1-.7-.3-.2-.2-.3-.4-.3-.7v-5c0-.3.1-.5.3-.7.2-.2.4-.3.7-.3h2.1c.2-.1.6-.5 1.1-1.2.3-.4.6-.7.8-1 .1-.1.2-.4.3-.7.1-.3.2-.6.3-1 .1-.3.2-.6.4-.8.3-.2.5-.3.8-.3.4 0 .8.1 1.2.3.3.1.5.4.7.7.2.4.3.9.3 1.5 0 .5-.1 1-.4 1.5h1.4c.5 0 1 .2 1.4.6.4.4.6.9.6 1.4M2.4 11.4c.1-.1.1-.2.1-.4 0-.1-.1-.3-.1-.4-.1-.1-.2-.1-.4-.1-.1 0-.3.1-.4.1-.1.1-.1.2-.1.4 0 .1 0 .3.1.4.1.1.2.1.4.1.1 0 .3 0 .4-.1m9.1-4.9c0-.3-.1-.5-.3-.7-.2-.2-.4-.3-.7-.3H7.8c0-.3.1-.7.4-1.2.2-.6.3-1 .3-1.3 0-.5-.1-.9-.3-1.1-.2-.2-.5-.4-1-.4-.1.1-.2.4-.2.7-.1.3-.1.6-.2 1-.2.3-.3.6-.5.8-.2.1-.4.4-.7.7l-.2.2c0 .2-.1.3-.2.4 0 0-.1.2-.2.3-.2.1-.3.3-.4.3l-.3.3c-.1.1-.2.2-.3.2-.1 0-.2.1-.3.1h-.2v5H4c.1 0 .2 0 .3.1.1 0 .2 0 .3.1.1 0 .2.1.3.1.1 0 .2.1.3.1s.2.1.2.1c1.1.4 2 .6 2.7.6H9c1 0 1.5-.4 1.5-1.3v-.4c.2-.1.3-.2.4-.4.1-.2.1-.4.1-.6 0-.2 0-.4-.1-.5.1-.4.3-.7.3-1.1 0-.1 0-.3-.1-.4-.1-.2-.1-.3-.2-.4.2 0 .3-.1.4-.4.1-.2.2-.4.2-.6"/>
</svg>
