<svg id="Слой_1" xmlns="http://www.w3.org/2000/svg" xmlns:xlink="http://www.w3.org/1999/xlink" viewBox="0 0 73.5 20.9">
    <style>
        .st0{clip-path:url(#SVGID_3_)}.st1{clip-path:url(#SVGID_4_)}.st2,.st3{fill:#313958}.st3{clip-path:url(#SVGID_4_)}
    </style>
    <defs>
        <path id="SVGID_1_" d="M0 0h73.5v20.9H0z"/>
    </defs>
    <defs>
        <path id="SVGID_2_" d="M0 0h73.5v20.9H0z"/>
    </defs>
    <clipPath id="SVGID_3_">
        <use xlink:href="#SVGID_1_" overflow="visible"/>
    </clipPath>
    <clipPath id="SVGID_4_" class="st0">
        <use xlink:href="#SVGID_2_" overflow="visible"/>
    </clipPath>
    <g class="st1">
        <path class="st2" d="M.7 19.2c-.3-.3-.5-.7-.5-1.2s.2-.9.5-1.2c.3-.3.8-.5 1.3-.5.3 0 .6.1.9.2v.7c-.3-.1-.6-.2-.9-.2-.3 0-.6.1-.8.3-.2.2-.3.4-.3.7s.1.6.3.8c.2.2.5.3.8.3.4 0 .6-.1.9-.3v.7c-.3.2-.6.2-.9.2-.5 0-.9-.1-1.3-.5zm2.8-2.8h2.7v.6h-1v2.6h-.6V17h-1v-.6z"/>
    </g>
    <g class="st1">
        <path class="st2" d="M7 19.6V19c.1.1.2.1.4.1.1 0 .2 0 .3-.1.1 0 .2-.2.3-.3l-1.2-2.3h.7l.8 1.6.7-1.6h.7l-1.2 2.5c-.2.5-.6.8-1 .8-.2 0-.4 0-.5-.1z"/>
    </g>
    <g class="st1">
        <path class="st2" d="M9.7 20.3V19h.3c.1-.2.3-.5.3-.8s.1-.8.1-1.3v-.5h2.3V19h.4v1.3h-.6v-.7h-2.2v.7h-.6zm2.4-1.2v-2h-.9c0 .8-.1 1.5-.4 2h1.3z"/>
    </g>
    <g class="st1">
        <path class="st2" d="M13.8 19.6v-3.2h2.4v.6h-1.7v.6h1.4v.6h-1.4v.8h1.8v.6h-2.5zm3.1 0v-3.2h.7v1.2H19v-1.2h.7v3.2H19v-1.4h-1.5v1.4h-.6zm5.5 0v-1.3c-.2.1-.5.1-.7.1-.8 0-1.2-.4-1.2-1.1v-1h.7v.9c0 .4.2.5.6.5.2 0 .5 0 .6-.1v-1.3h.7v3.2h-.7zm1.5 0v-3.2h2.4v.6h-1.7v.6H26v.6h-1.4v.8h1.8v.6h-2.5zm3.5-.4c-.3-.3-.5-.7-.5-1.2s.2-.9.5-1.2c.3-.3.8-.5 1.3-.5.3 0 .6.1.9.2v.7c-.3-.1-.6-.2-.9-.2-.3 0-.6.1-.8.3-.2.2-.3.4-.3.8s.1.6.3.8c.2.2.5.3.8.3.4 0 .6-.1.9-.3v.7c-.3.2-.6.2-.9.2-.5-.1-.9-.2-1.3-.6z"/>
    </g>
    <g class="st1">
        <path class="st2" d="M30.3 19.6v-3.2h.7v1.3l1.2-1.3h.8l-1.4 1.5 1.6 1.8h-.9L31 18.2v1.5h-.7z"/>
    </g>
    <g class="st1">
        <path class="st2" d="M33.9 16.8c.3-.3.7-.5 1.2-.5s.9.2 1.2.5c.3.3.5.7.5 1.2s-.2.9-.5 1.2c-.3.3-.7.5-1.2.5s-.9-.2-1.2-.5c-.3-.3-.5-.7-.5-1.2 0-.4.2-.8.5-1.2zm1.2 2.3c.3 0 .5-.1.7-.3.2-.2.3-.5.3-.8 0-.3-.1-.6-.3-.8-.2-.2-.4-.3-.7-.3s-.5.1-.7.3c-.2.2-.3.5-.3.8 0 .3.1.6.3.8.2.2.4.3.7.3zm2.4.5v-3.2h2.4v.6h-1.7v.6h1.4v.6h-1.4v.8H40v.6h-2.5zm5.6 0l1.4-3.3h.6l1.4 3.3h-.7l-.3-.7h-1.4l-.3.7h-.7zm1.2-1.2h.9l-.5-1.1-.4 1.1z"/>
    </g>
    <g class="st1">
        <path class="st2" d="M47.1 19.6v-3.2h2.3v.6h-1.7v2.6h-.6z"/>
    </g>
    <g class="st1">
        <path class="st2" d="M50.1 19.6v-3.2h2.4v.6h-1.7v.6h1.4v.6h-1.4v.8h1.8v.6h-2.5zm3.1 0v-3.2h.7v1.2h1.5v-1.2h.6v3.2h-.7v-1.4h-1.5v1.4h-.6z"/>
    </g>
    <g class="st1">
        <path class="st2" d="M56.6 16.4h2.7v.6h-1v2.6h-.7V17h-1v-.6z"/>
    </g>
    <g class="st1">
        <path class="st2" d="M60.4 19.2c-.3-.3-.5-.7-.5-1.2s.2-.9.5-1.2c.3-.3.8-.5 1.3-.5.3 0 .6.1.9.2v.7c-.4-.1-.6-.2-1-.2-.3 0-.6.1-.8.3-.2.2-.3.4-.3.8s.1.6.3.8c.2.2.5.3.8.3.4 0 .6-.1.9-.3v.7c-.3.2-.6.2-.9.2-.5-.1-.9-.2-1.2-.6z"/>
    </g>
    <g class="st1">
        <path class="st2" d="M63.2 16.4h2.7v.6h-1v2.6h-.7V17h-1v-.6zm3.3 3.2v-3.2H68c.6 0 1 .3 1 .8 0 .3-.2.6-.4.6.2 0 .3.1.5.3.1.2.2.3.2.6s-.1.5-.3.7c-.2.2-.5.3-.8.3h-1.7zm.7-1.9h.8c.3 0 .4-.1.4-.4 0-.2-.2-.4-.4-.4h-.7v.8zm0 1.4h.8c.3 0 .5-.1.5-.4s-.2-.4-.5-.4h-.8v.8z"/>
    </g>
    <g class="st1">
        <path class="st2" d="M70.4 16.8c.3-.3.7-.5 1.2-.5s.9.2 1.2.5c.3.3.5.7.5 1.2s-.2.9-.5 1.2c-.3.3-.7.5-1.2.5s-.9-.2-1.2-.5c-.3-.3-.5-.7-.5-1.2 0-.4.2-.8.5-1.2zm1.2 2.3c.3 0 .5-.1.7-.3.2-.2.3-.5.3-.8 0-.3-.1-.6-.3-.8-.2-.2-.4-.3-.7-.3-.3 0-.5.1-.7.3-.2.2-.3.5-.3.8 0 .3.1.6.3.8.2.2.4.3.7.3z"/>
    </g>
    <g class="st1">
        <path class="st2" d="M24.5 13.2V.2h6.2c1.3 0 2.7.2 3.8 1.3.6.6 1.3 1.6 1.3 3.4 0 1.7-.7 2.7-1.3 3.3-.5.5-1.5 1.1-3.1 1.1h-2.3v3.9h-4.6zM29.1 6h.8c.2 0 .7 0 1.1-.4.2-.2.3-.4.3-.8s-.2-.7-.4-.8c-.2-.2-.6-.3-1-.3H29V6z"/>
    </g>
    <g class="st1">
        <path class="st2" d="M37 .2h5.7c1.1 0 2.8.1 3.9 1.1.3.3 1 1.1 1 2.6 0 .6-.1 1.2-.5 1.8-.3.3-.7.6-1.1.8v.1c.5.1 1 .4 1.4.8.7.6 1 1.3 1 2.2 0 1.3-.6 2.3-1.4 2.8-1.1.8-2.4.8-3.4.8H37V.2zm4.3 5h.7c.3 0 .7-.1.9-.3.1-.1.3-.3.3-.7 0-.4-.2-.6-.3-.7-.3-.2-.7-.2-.9-.2h-.7v1.9zm0 4.9h1c.3 0 .7 0 1-.2.2-.2.4-.4.4-.9 0-.3-.1-.6-.3-.8-.3-.3-.8-.3-1-.3h-1v2.2z"/>
    </g>
    <g class="st1">
        <path class="st2" d="M61.2 11.5c-1.1 1.1-2.9 2.1-5.4 2.1-2.5 0-4.3-1-5.4-2.1-1-1-1.8-2.6-1.8-4.7s.8-3.7 1.8-4.7C51.5 1 53.3 0 55.8 0c2.5 0 4.3 1 5.4 2.1 1 1 1.8 2.6 1.8 4.7s-.8 3.7-1.8 4.7m-7.1-6.7c-.5.5-.7 1.2-.7 1.9s.3 1.5.7 1.9a2.413 2.413 0 0 0 3.4 0c.4-.4.7-1.1.7-1.9 0-.8-.3-1.5-.7-1.9-.3-.4-.9-.7-1.7-.7-.8.1-1.4.4-1.7.7"/>
    </g>
    <g class="st1">
        <path class="st2" d="M64.2 13.2V.2H73v3.6h-4V5h3.6v3.4H69v1.3h4.1v3.5z"/>
    </g>
    <g class="st1">
        <path class="st2" d="M.3.2v13h4.5V6H3.7V3.8h4v9.4h4.5V.2z"/>
    </g>
    <path class="st3" d="M13.9.3v12.9h8.9V9.7h-4.2V8.4h3.7V5h-3.7V3.8h4.1V.3z"/>
</svg>
