<?xml version="1.0" encoding="utf-8"?>
<!-- Generator: Adobe Illustrator 19.0.0, SVG Export Plug-In . SVG Version: 6.00 Build 0)  -->
<svg version="1.1" id="Слой_1" xmlns="http://www.w3.org/2000/svg" xmlns:xlink="http://www.w3.org/1999/xlink" x="0px" y="0px"
	 viewBox="0 0 73.5 20.9" style="enable-background:new 0 0 73.5 20.9;" xml:space="preserve">
<style type="text/css">
	.st0{clip-path:url(#SVGID_2_);}
	.st1{fill:#313958;}
	.st2{font-family:'Geometria-Bold';}
	.st3{font-size:4.6233px;}
	.st4{clip-path:url(#SVGID_4_);fill:#313958;}
</style>
<g>
	<defs>
		<rect id="SVGID_1_" y="0" width="73.5" height="20.9"/>
	</defs>
	<clipPath id="SVGID_2_">
		<use xlink:href="#SVGID_1_"  style="overflow:visible;"/>
	</clipPath>
	<g class="st0">
		<text transform="matrix(1 0 0 1 4.882813e-004 19.649)"><tspan x="0" y="0" class="st1 st2 st3">С</tspan><tspan x="3.4" y="0" class="st1 st2 st3">Т</tspan></text>
	</g>
	<g class="st0">
		<text transform="matrix(1 0 0 1 6.6768 19.649)" class="st1 st2 st3">У</text>
	</g>
	<g class="st0">
		<text transform="matrix(1 0 0 1 9.6172 19.649)" class="st1 st2 st3">Д</text>
	</g>
	<g class="st0">
		<text transform="matrix(1 0 0 1 13.4497 19.649)"><tspan x="0" y="0" class="st1 st2 st3">ЕНЧЕ</tspan><tspan x="13.2" y="0" class="st1 st2 st3">С</tspan></text>
	</g>
	<g class="st0">
		<text transform="matrix(1 0 0 1 29.9873 19.649)" class="st1 st2 st3">К</text>
	</g>
	<g class="st0">
		<text transform="matrix(1 0 0 1 33.1865 19.649)"><tspan x="0" y="0" class="st1 st2 st3">ОЕ  </tspan><tspan x="9.8" y="0" class="st1 st2 st3">А</tspan></text>
	</g>
	<g class="st0">
		<text transform="matrix(1 0 0 1 46.7051 19.649)" class="st1 st2 st3">Г</text>
	</g>
	<g class="st0">
		<text transform="matrix(1 0 0 1 49.7148 19.649)"><tspan x="0" y="0" class="st1 st2 st3">Е</tspan><tspan x="3.1" y="0" class="st1 st2 st3">Н</tspan></text>
	</g>
	<g class="st0">
		<text transform="matrix(1 0 0 1 56.4922 19.649)" class="st1 st2 st3">Т</text>
	</g>
	<g class="st0">
		<text transform="matrix(1 0 0 1 59.6406 19.649)" class="st1 st2 st3">С</text>
	</g>
	<g class="st0">
		<text transform="matrix(1 0 0 1 63.0439 19.649)"><tspan x="0" y="0" class="st1 st2 st3">Т</tspan><tspan x="3.1" y="0" class="st1 st2 st3">В</tspan></text>
	</g>
	<g class="st0">
		<text transform="matrix(1 0 0 1 69.6602 19.649)" class="st1 st2 st3">О</text>
	</g>
</g>
<polygon class="st1" points="13.9,0.3 13.9,13.2 22.8,13.2 22.8,9.7 18.6,9.7 18.6,8.4 22.3,8.4 22.3,5 18.6,5 18.6,3.8 22.7,3.8 
	22.7,0.3 "/>
<g>
	<defs>
		<rect id="SVGID_3_" y="0" width="73.5" height="20.9"/>
	</defs>
	<clipPath id="SVGID_4_">
		<use xlink:href="#SVGID_3_"  style="overflow:visible;"/>
	</clipPath>
	<path class="st4" d="M24.5,13.2v-13h6.2c1.3,0,2.7,0.2,3.8,1.3c0.6,0.6,1.3,1.6,1.3,3.4c0,1.7-0.7,2.7-1.3,3.3
		C34,8.7,33,9.3,31.4,9.3h-2.3v3.9H24.5z M29.1,6h0.8c0.2,0,0.7,0,1.1-0.4c0.2-0.2,0.3-0.4,0.3-0.8c0-0.4-0.2-0.7-0.4-0.8
		c-0.2-0.2-0.6-0.3-1-0.3h-0.9V6z"/>
	<path class="st4" d="M37,0.2h5.7c1.1,0,2.8,0.1,3.9,1.1c0.3,0.3,1,1.1,1,2.6c0,0.6-0.1,1.2-0.5,1.8c-0.3,0.3-0.7,0.6-1.1,0.8l0,0.1
		c0.5,0.1,1,0.4,1.4,0.8c0.7,0.6,1,1.3,1,2.2c0,1.3-0.6,2.3-1.4,2.8c-1.1,0.8-2.4,0.8-3.4,0.8H37V0.2z M41.3,5.2h0.7
		c0.3,0,0.7-0.1,0.9-0.3c0.1-0.1,0.3-0.3,0.3-0.7c0-0.4-0.2-0.6-0.3-0.7c-0.3-0.2-0.7-0.2-0.9-0.2h-0.7V5.2z M41.3,10.1h1
		c0.3,0,0.7,0,1-0.2c0.2-0.2,0.4-0.4,0.4-0.9c0-0.3-0.1-0.6-0.3-0.8c-0.3-0.3-0.8-0.3-1-0.3h-1V10.1z"/>
	<path class="st4" d="M61.2,11.5c-1.1,1.1-2.9,2.1-5.4,2.1c-2.5,0-4.3-1-5.4-2.1c-1-1-1.8-2.6-1.8-4.7c0-2.1,0.8-3.7,1.8-4.7
		C51.5,1,53.3,0,55.8,0c2.5,0,4.3,1,5.4,2.1c1,1,1.8,2.6,1.8,4.7C63,8.9,62.2,10.5,61.2,11.5 M54.1,4.8c-0.5,0.5-0.7,1.2-0.7,1.9
		c0,0.7,0.3,1.5,0.7,1.9c0.4,0.4,1,0.7,1.7,0.7c0.7,0,1.3-0.3,1.7-0.7c0.4-0.4,0.7-1.1,0.7-1.9c0-0.8-0.3-1.5-0.7-1.9
		c-0.3-0.4-0.9-0.7-1.7-0.7C55,4.2,54.4,4.5,54.1,4.8"/>
	<polygon class="st4" points="64.2,13.2 64.2,0.2 73,0.2 73,3.8 69,3.8 69,5 72.6,5 72.6,8.4 69,8.4 69,9.7 73.1,9.7 73.1,13.2 	"/>
	<polygon class="st4" points="0.3,0.2 0.3,13.2 4.8,13.2 4.8,6 3.7,6 3.7,3.8 7.7,3.8 7.7,13.2 12.2,13.2 12.2,0.2 	"/>
</g>
</svg>
