<svg xmlns="http://www.w3.org/2000/svg" xmlns:xlink="http://www.w3.org/1999/xlink" viewBox="0 0 73.5 20.9">
    <style>
        .st0{clip-path:url(#SVGID_2_)}.st1{fill:#313958}.st2{font-family:&apos;Geometria-Bold&apos;}.st3{font-size:4.6233px}.st4{clip-path:url(#SVGID_4_);fill:#313958}
    </style>
    <defs>
        <path id="SVGID_1_" d="M0 0h73.5v20.9H0z"/>
    </defs>
    <clipPath id="SVGID_2_">
        <use xlink:href="#SVGID_1_" overflow="visible"/>
    </clipPath>
    <text transform="translate(0 19.649)" class="st0">
        <tspan x="0" y="0" class="st1 st2 st3">С</tspan><tspan x="3.4" y="0" class="st1 st2 st3">Т</tspan>
    </text>
    <g class="st0">
        <text transform="translate(6.677 19.649)" class="st1 st2 st3">
            У
        </text>
    </g>
    <g class="st0">
        <text transform="translate(9.617 19.649)" class="st1 st2 st3">
            Д
        </text>
    </g>
    <text transform="translate(13.45 19.649)" class="st0">
        <tspan x="0" y="0" class="st1 st2 st3">ЕНЧЕ</tspan><tspan x="13.2" y="0" class="st1 st2 st3">С</tspan>
    </text>
    <g class="st0">
        <text transform="translate(29.987 19.649)" class="st1 st2 st3">
            К
        </text>
    </g>
    <text transform="translate(33.187 19.649)" class="st0">
        <tspan x="0" y="0" class="st1 st2 st3">ОЕ </tspan><tspan x="9.8" y="0" class="st1 st2 st3">А</tspan>
    </text>
    <g class="st0">
        <text transform="translate(46.705 19.649)" class="st1 st2 st3">
            Г
        </text>
    </g>
    <text transform="translate(49.715 19.649)" class="st0">
        <tspan x="0" y="0" class="st1 st2 st3">Е</tspan><tspan x="3.1" y="0" class="st1 st2 st3">Н</tspan>
    </text>
    <g class="st0">
        <text transform="translate(56.492 19.649)" class="st1 st2 st3">
            Т
        </text>
    </g>
    <g class="st0">
        <text transform="translate(59.64 19.649)" class="st1 st2 st3">
            С
        </text>
    </g>
    <text transform="translate(63.044 19.649)" class="st0">
        <tspan x="0" y="0" class="st1 st2 st3">Т</tspan><tspan x="3.1" y="0" class="st1 st2 st3">В</tspan>
    </text>
    <g class="st0">
        <text transform="translate(69.66 19.649)" class="st1 st2 st3">
            О
        </text>
    </g>
    <path class="st1" d="M13.9.3v12.9h8.9V9.7h-4.2V8.4h3.7V5h-3.7V3.8h4.1V.3z"/>
    <defs>
        <path id="SVGID_3_" d="M0 0h73.5v20.9H0z"/>
    </defs>
    <clipPath id="SVGID_4_">
        <use xlink:href="#SVGID_3_" overflow="visible"/>
    </clipPath>
    <path class="st4" d="M24.5 13.2V.2h6.2c1.3 0 2.7.2 3.8 1.3.6.6 1.3 1.6 1.3 3.4 0 1.7-.7 2.7-1.3 3.3-.5.5-1.5 1.1-3.1 1.1h-2.3v3.9h-4.6zM29.1 6h.8c.2 0 .7 0 1.1-.4.2-.2.3-.4.3-.8s-.2-.7-.4-.8c-.2-.2-.6-.3-1-.3H29V6zM37 .2h5.7c1.1 0 2.8.1 3.9 1.1.3.3 1 1.1 1 2.6 0 .6-.1 1.2-.5 1.8-.3.3-.7.6-1.1.8v.1c.5.1 1 .4 1.4.8.7.6 1 1.3 1 2.2 0 1.3-.6 2.3-1.4 2.8-1.1.8-2.4.8-3.4.8H37V.2zm4.3 5h.7c.3 0 .7-.1.9-.3.1-.1.3-.3.3-.7 0-.4-.2-.6-.3-.7-.3-.2-.7-.2-.9-.2h-.7v1.9zm0 4.9h1c.3 0 .7 0 1-.2.2-.2.4-.4.4-.9 0-.3-.1-.6-.3-.8-.3-.3-.8-.3-1-.3h-1v2.2zm19.9 1.4c-1.1 1.1-2.9 2.1-5.4 2.1-2.5 0-4.3-1-5.4-2.1-1-1-1.8-2.6-1.8-4.7s.8-3.7 1.8-4.7C51.5 1 53.3 0 55.8 0c2.5 0 4.3 1 5.4 2.1 1 1 1.8 2.6 1.8 4.7s-.8 3.7-1.8 4.7m-7.1-6.7c-.5.5-.7 1.2-.7 1.9s.3 1.5.7 1.9a2.413 2.413 0 0 0 3.4 0c.4-.4.7-1.1.7-1.9 0-.8-.3-1.5-.7-1.9-.3-.4-.9-.7-1.7-.7-.8.1-1.4.4-1.7.7m10.1 8.4V.2H73v3.6h-4V5h3.6v3.4H69v1.3h4.1v3.5zM.3.2v13h4.5V6H3.7V3.8h4v9.4h4.5V.2z"/>
</svg>
