<?xml version="1.0" encoding="utf-8"?>
<!-- Generator: Adobe Illustrator 19.0.0, SVG Export Plug-In . SVG Version: 6.00 Build 0)  -->
<svg version="1.1" id="Слой_1" xmlns="http://www.w3.org/2000/svg" xmlns:xlink="http://www.w3.org/1999/xlink" x="0px" y="0px"
	 viewBox="0 0 37.2 33.5" style="enable-background:new 0 0 37.2 33.5;" xml:space="preserve">
<style type="text/css">
	.st0{clip-path:url(#SVGID_2_);fill:none;stroke:#FFFFFF;stroke-width:2;stroke-linecap:round;stroke-miterlimit:10;}
	.st1{clip-path:url(#SVGID_2_);fill:#FFFFFF;}
</style>
<g>
	<defs>
		<rect id="SVGID_1_" y="0" width="37.2" height="33.5"/>
	</defs>
	<clipPath id="SVGID_2_">
		<use xlink:href="#SVGID_1_"  style="overflow:visible;"/>
	</clipPath>
	<circle class="st0" cx="18.8" cy="15.1" r="14.1"/>
	<path class="st0" d="M24.9,19.5c-1.2,2.1-3.5,3.6-6.1,3.6c-2.6,0-4.9-1.4-6.1-3.6"/>
	<line class="st0" x1="28.7" y1="25" x2="36.2" y2="32.5"/>
	<line class="st0" x1="1" y1="32.5" x2="8.5" y2="25"/>
	<path class="st1" d="M11.5,12.2c0-0.7,0.5-1.2,1.2-1.2s1.2,0.5,1.2,1.2c0,0.7-0.5,1.2-1.2,1.2S11.5,12.9,11.5,12.2"/>
	<path class="st1" d="M23.8,12.2c0-0.7,0.5-1.2,1.2-1.2c0.7,0,1.2,0.5,1.2,1.2c0,0.7-0.5,1.2-1.2,1.2C24.3,13.4,23.8,12.9,23.8,12.2
		"/>
</g>
</svg>
