<svg xmlns="http://www.w3.org/2000/svg" xmlns:xlink="http://www.w3.org/1999/xlink" viewBox="0 0 37.2 33.5">
    <defs>
        <path id="SVGID_1_" d="M0 0h37.2v33.5H0z"/>
    </defs>
    <clipPath id="SVGID_2_">
        <use xlink:href="#SVGID_1_" overflow="visible"/>
    </clipPath>
    <circle cx="18.8" cy="15.1" r="14.1"/>
    <path d="M24.9 19.5c-1.2 2.1-3.5 3.6-6.1 3.6-2.6 0-4.9-1.4-6.1-3.6m16 5.5l7.5 7.5M1 32.5L8.5 25"/>
    <path d="M11.5 12.2c0-.7.5-1.2 1.2-1.2s1.2.5 1.2 1.2-.5 1.2-1.2 1.2-1.2-.5-1.2-1.2m12.3 0c0-.7.5-1.2 1.2-1.2s1.2.5 1.2 1.2-.5 1.2-1.2 1.2-1.2-.5-1.2-1.2"/>
</svg>
