<svg xmlns="http://www.w3.org/2000/svg" viewBox="0 0 23 10">
    <path class="st0" d="M16.8 8c-1.6 0-2.9-1.3-2.9-3s1.3-3 2.9-3c1.6 0 2.9 1.3 2.9 3-.1 1.7-1.3 3-2.9 3M6.3 8C4.6 8 3.4 6.7 3.4 5s1.3-3 2.9-3c1.6 0 2.9 1.3 2.9 3-.1 1.7-1.3 3-2.9 3m15.5-3.7H21C20.7 2.1 18.9.5 16.7.5c-1.8 0-3.2 1-3.9 2.6-1.2-.6-1.5-.6-2.7 0C9.5 1.6 8 .5 6.3.5 4.1.5 2.3 2.1 2 4.3h-.8c-.7 0-.7 0-.7.7s0 .7.7.7H2c.3 2.2 2.1 3.8 4.3 3.8 2.4 0 4.3-2 4.3-4.5v-.5c1-.5.9-.5 1.9 0V5c0 2.6 1.9 4.5 4.3 4.5 2.2 0 3.9-1.6 4.3-3.8h.8c.7 0 .7 0 .7-.7s-.1-.7-.8-.7"/>
</svg>
